# xmcd
#
# Track frame offsets:
#	150
#	14832
#	31501
#	48235
#	69004
#	83035
#	98334
#	113163
#	137657
#	152639
#	172094
#	190828
#	204231
#
# Disc length: 2727 seconds
#
# Revision: 0
# Processed by: cddbd v1.4PL0 Copyright (c) Steve Scherf et al.
# Submitted via: audiograbber 1.81.02
#
DISCID=970aa50d
DTITLE=Mary-Ann Brandon - Matches From Motel Rendezvous
DYEAR=2002
DGENRE=Blues
TTITLE0=House Of Blues
TTITLE1=Dollars and Sense
TTITLE2=What You Don't Know
TTITLE3=Love Me Right
TTITLE4=It's Not For Me To Say
TTITLE5=He's Cool She's Hot
TTITLE6=What Are You Waiting For
TTITLE7=Time To Kill
TTITLE8=Pinocchio
TTITLE9=Headed For Hard Times
TTITLE10=Why Do I Love My Man So
TTITLE11=OLd Man's Streetheart
TTITLE12=Hidden Track
EXTD=Label :\nR.O.A.D. Records\nP.O. Box  68096\nNashville, TN 37206
EXTT0=
EXTT1=
EXTT2=
EXTT3=
EXTT4=
EXTT5=
EXTT6=
EXTT7=
EXTT8=
EXTT9=
EXTT10=
EXTT11=
EXTT12=
PLAYORDER=
